# File created by Blade
# Date/Time:  Wed Jan 21 19:13:57 2015
# Frame Rate: 120.000 fps
#------------------------------------------------------
:FULLY-SPECIFIED
:DEGREES
1122
root -1.948971 32.660810 -3.743243 43.465318 1.647277 1.377593
RightUpLeg -35.143615 -7.214316 4.886274
RightLeg -6.064679 -0.000000 0.000000
RightFoot -9.200797 -1.290605 20.040326
RightToeBase 20.306749 -0.000000 -0.000000
LeftUpLeg -37.936203 3.861122 -3.597083
LeftLeg 0.783810 -0.000000 -0.000000
LeftFoot -9.815256 -4.177207 -6.672792
LeftToeBase 9.920844 -0.000000 -0.000000
Spine -47.354746 -0.771581 -0.828138
RightShoulder -20.113877 15.471635 -46.906053
RightArm 3.802675 -19.617464 37.759396
RightForeArm 2.721497 -0.000000 -8.502536
RightHand 8.009390 -0.000000 5.069521
RightHandThumb1 -24.326973 -0.000000 -32.862282
LeftShoulder -14.796097 4.270801 38.430317
LeftArm 19.633997 -19.031569 -34.606079
LeftForeArm 21.144695 -0.000000 2.846578
LeftHand -28.187700 0.000000 4.213636
LeftHandThumb1 -26.253704 0.000000 33.147579
Head 5.895283 -0.883188 3.623304
1123
root -1.958979 32.657953 -3.746076 43.456463 1.703997 1.384731
RightUpLeg -35.121999 -7.191785 4.875318
RightLeg -6.069386 -0.000000 0.000000
RightFoot -9.242345 -1.302316 20.094603
RightToeBase 20.277704 -0.000000 -0.000000
LeftUpLeg -37.928708 3.844843 -3.579025
LeftLeg 0.753786 -0.000000 -0.000000
LeftFoot -9.790458 -4.128143 -6.600868
LeftToeBase 9.923614 -0.000000 -0.000000
Spine -47.377613 -0.778418 -0.820217
RightShoulder -20.104561 15.501367 -46.905758
RightArm 3.852952 -19.839290 37.612377
RightForeArm 2.578102 -0.000000 -8.487281
RightHand 8.169133 -0.000000 5.223418
RightHandThumb1 -24.326973 -0.000000 -32.862282
LeftShoulder -14.749444 4.321268 38.415127
LeftArm 19.763077 -19.002228 -34.669388
LeftForeArm 21.170213 -0.000000 2.839397
LeftHand -28.242760 -0.000000 4.268809
LeftHandThumb1 -26.253704 0.000000 33.147579
Head 5.879911 -0.875264 3.777601
1124
root -1.967855 32.655886 -3.750647 43.453840 1.753544 1.386689
RightUpLeg -35.138105 -7.197014 4.893517
RightLeg -6.026427 -0.000000 0.000000
RightFoot -9.292184 -1.282107 20.154376
RightToeBase 20.261736 -0.000000 -0.000000
LeftUpLeg -37.941250 3.838456 -3.565154
LeftLeg 0.744681 -0.000000 -0.000000
LeftFoot -9.779234 -4.087081 -6.510455
LeftToeBase 9.987722 -0.000000 -0.000000
Spine -47.397786 -0.776924 -0.813973
RightShoulder -20.103511 15.481269 -46.916899
RightArm 3.927122 -19.979320 37.518381
RightForeArm 2.699520 -0.000000 -8.416873
RightHand 8.086176 -0.000000 5.085245
RightHandThumb1 -24.326973 -0.000000 -32.862282
LeftShoulder -14.701153 4.346746 38.417206
LeftArm 19.868474 -18.887369 -34.701720
LeftForeArm 21.264640 -0.000000 2.821213
LeftHand -28.316898 -0.000000 4.157597
LeftHandThumb1 -26.253704 0.000000 33.147579
Head 5.832936 -0.892076 3.927113
1125
root -1.977390 32.654717 -3.756294 43.442867 1.780699 1.379442
RightUpLeg -35.132605 -7.104714 4.844542
RightLeg -5.999180 -0.000000 0.000000
RightFoot -9.346010 -1.353408 20.176227
RightToeBase 20.215660 -0.000000 -0.000000
LeftUpLeg -37.940191 3.818653 -3.529554
LeftLeg 0.729566 -0.000000 -0.000000
LeftFoot -9.747318 -4.024630 -6.481381
LeftToeBase 9.984526 -0.000000 -0.000000
Spine -47.402898 -0.766748 -0.814424
RightShoulder -20.091890 15.475160 -46.897736
RightArm 3.986621 -20.086721 37.390496
RightForeArm 2.637798 0.000000 -8.350065
RightHand 8.013645 -0.000000 5.291431
RightHandThumb1 -24.326973 -0.000000 -32.862282
LeftShoulder -14.650405 4.366959 38.417278
LeftArm 19.944871 -18.733843 -34.694129
LeftForeArm 21.159187 -0.000000 2.773100
LeftHand -28.255536 -0.000000 4.212133
LeftHandThumb1 -26.253704 0.000000 33.147579
Head 5.767953 -0.896511 4.071686
1126
root -1.985847 32.653835 -3.760119 43.408240 1.809228 1.368188
RightUpLeg -35.123412 -7.066871 4.844193
RightLeg -5.942868 -0.000000 0.000000
RightFoot -9.405611 -1.388843 20.155527
RightToeBase 20.234989 -0.000000 -0.000000
LeftUpLeg -37.923395 3.825367 -3.508464
LeftLeg 0.732987 -0.000000 -0.000000
LeftFoot -9.739243 -3.972491 -6.395222
LeftToeBase 10.005308 -0.000000 -0.000000
Spine -47.382520 -0.754803 -0.808287
RightShoulder -20.096543 15.456203 -46.902735
RightArm 4.068205 -20.115059 37.311075
RightForeArm 2.622511 -0.000000 -8.304102
RightHand 7.988246 -0.000000 5.189224
RightHandThumb1 -24.326973 -0.000000 -32.862282
LeftShoulder -14.613676 4.405091 38.409759
LeftArm 20.056730 -18.609921 -34.682454
LeftForeArm 21.164565 0.000000 2.707041
LeftHand -28.289992 -0.000000 4.108342
LeftHandThumb1 -26.253704 0.000000 33.147579
Head 5.696061 -0.875686 4.212336
1127
root -1.993119 32.653101 -3.764387 43.378867 1.832659 1.361219
RightUpLeg -35.132677 -7.053924 4.859029
RightLeg -5.870623 -0.000000 0.000000
RightFoot -9.473234 -1.389133 20.157936
RightToeBase 20.269616 -0.000000 -0.000000
LeftUpLeg -37.908153 3.807716 -3.476358
LeftLeg 0.729183 -0.000000 -0.000000
LeftFoot -9.723043 -3.901708 -6.344205
LeftToeBase 10.012294 -0.000000 -0.000000
Spine -47.362144 -0.745215 -0.800415
RightShoulder -20.117454 15.393385 -46.895193
RightArm 4.210600 -20.081034 37.221736
RightForeArm 2.730267 0.000000 -8.251621
RightHand 7.901351 0.000000 5.131392
RightHandThumb1 -24.326973 -0.000000 -32.862282
LeftShoulder -14.579818 4.420316 38.399915
LeftArm 20.120739 -18.397170 -34.622550
LeftForeArm 21.058666 -0.000000 2.650365
LeftHand -28.264960 -0.000000 4.062643
LeftHandThumb1 -26.253704 0.000000 33.147579
Head 5.603513 -0.832718 4.334899
1128
root -1.999889 32.652992 -3.770431 43.355628 1.850441 1.357742
RightUpLeg -35.149026 -7.000694 4.837994
RightLeg -5.797690 -0.000000 0.000000
RightFoot -9.537689 -1.443915 20.167517
RightToeBase 20.292814 -0.000000 -0.000000
LeftUpLeg -37.899845 3.784379 -3.448053
LeftLeg 0.726658 -0.000000 -0.000000
LeftFoot -9.707136 -3.828033 -6.294659
LeftToeBase 10.069338 -0.000000 -0.000000
Spine -47.344062 -0.746493 -0.792374
RightShoulder -20.118712 15.425507 -46.916910
RightArm 4.282466 -20.020689 37.157328
RightForeArm 2.550721 -0.000000 -8.258784
RightHand 7.936554 -0.000000 5.163484
RightHandThumb1 -24.326973 -0.000000 -32.862282
LeftShoulder -14.559081 4.489670 38.392753
LeftArm 20.225956 -18.307542 -34.616424
LeftForeArm 21.048527 -0.000000 2.597824
LeftHand -28.277254 -0.000000 3.999432
LeftHandThumb1 -26.253704 0.000000 33.147579
Head 5.501916 -0.796317 4.470962
1129
root -2.006597 32.652980 -3.774848 43.320077 1.894847 1.352027
RightUpLeg -35.139174 -6.989829 4.848930
RightLeg -5.747917 -0.000000 0.000000
RightFoot -9.570857 -1.465270 20.190421
RightToeBase 20.248776 -0.000000 -0.000000
LeftUpLeg -37.875657 3.737822 -3.393839
LeftLeg 0.722074 -0.000000 -0.000000
LeftFoot -9.695679 -3.751994 -6.228120
LeftToeBase 10.080686 -0.000000 -0.000000
Spine -47.313620 -0.761194 -0.775560
RightShoulder -20.134115 15.480338 -46.943371
RightArm 4.341769 -20.054897 37.096503
RightForeArm 2.469062 -0.000000 -8.266401
RightHand 7.804089 -0.000000 5.396421
RightHandThumb1 -24.326973 -0.000000 -32.862282
LeftShoulder -14.548070 4.558036 38.400226
LeftArm 20.345806 -18.221021 -34.623162
LeftForeArm 21.024161 -0.000000 2.545838
LeftHand -28.244893 -0.000000 3.902401
LeftHandThumb1 -26.253704 0.000000 33.147579
Head 5.406208 -0.776598 4.604024
1130
root -2.011967 32.653338 -3.781136 43.284165 1.921746 1.356208
RightUpLeg -35.132556 -6.960758 4.830708
RightLeg -5.698354 -0.000000 0.000000
RightFoot -9.623983 -1.511619 20.161667
RightToeBase 20.247565 -0.000000 -0.000000
LeftUpLeg -37.858274 3.699787 -3.361534
LeftLeg 0.726655 -0.000000 -0.000000
LeftFoot -9.675735 -3.696427 -6.208392
LeftToeBase 10.118782 -0.000000 -0.000000
Spine -47.276206 -0.769830 -0.774647
RightShoulder -20.135823 15.536339 -46.985379
RightArm 4.390825 -20.093205 37.059008
RightForeArm 2.463422 -0.000000 -8.341296
RightHand 7.822736 -0.000000 5.526954
RightHandThumb1 -24.326973 -0.000000 -32.862282
LeftShoulder -14.525594 4.574981 38.396553
LeftArm 20.414112 -18.197945 -34.625389
LeftForeArm 21.058897 -0.000000 2.524763
LeftHand -28.279172 0.000000 3.879223
LeftHandThumb1 -26.253704 0.000000 33.147579
Head 5.317935 -0.718631 4.727784
1131
root -2.016518 32.653128 -3.784948 43.237057 1.974924 1.355581
RightUpLeg -35.099138 -6.953648 4.833113
RightLeg -5.665894 -0.000000 0.000000
RightFoot -9.664093 -1.545887 20.192212
RightToeBase 20.255505 -0.000000 -0.000000
LeftUpLeg -37.834372 3.661851 -3.317302
LeftLeg 0.743862 -0.000000 -0.000000
LeftFoot -9.661617 -3.663526 -6.168691
LeftToeBase 10.119028 -0.000000 -0.000000
Spine -47.233679 -0.800409 -0.749796
RightShoulder -20.124721 15.565165 -47.012386
RightArm 4.455509 -20.081744 37.009326
RightForeArm 2.346280 -0.000000 -8.360222
RightHand 7.803093 -0.000000 5.464321
RightHandThumb1 -24.326973 -0.000000 -32.862282
LeftShoulder -14.507971 4.591128 38.420802
LeftArm 20.468348 -18.184960 -34.653820
LeftForeArm 21.026350 -0.000000 2.513826
LeftHand -28.255365 -0.000000 3.894263
LeftHandThumb1 -26.253704 0.000000 33.147579
Head 5.221300 -0.667577 4.851825
